<?xml version="1.0" encoding="UTF-8" standalone="no"?>
<!-- Generator: Adobe Illustrator 18.1.1, SVG Export Plug-In . SVG Version: 6.00 Build 0)  -->

<svg
   version="1.1"
   id="Capa_1"
   x="0px"
   y="0px"
   viewBox="0 0 26.955 26.955"
   style="enable-background:new 0 0 26.955 26.955;"
   xml:space="preserve"
   sodipodi:docname="left-arrow-button.svg"
   inkscape:version="1.1.1 (3bf5ae0d25, 2021-09-20)"
   xmlns:inkscape="http://www.inkscape.org/namespaces/inkscape"
   xmlns:sodipodi="http://sodipodi.sourceforge.net/DTD/sodipodi-0.dtd"
   xmlns="http://www.w3.org/2000/svg"
   xmlns:svg="http://www.w3.org/2000/svg"><defs
   id="defs167" /><sodipodi:namedview
   id="namedview165"
   pagecolor="#ffffff"
   bordercolor="#666666"
   borderopacity="1.0"
   inkscape:pageshadow="2"
   inkscape:pageopacity="0.0"
   inkscape:pagecheckerboard="0"
   showgrid="false"
   inkscape:zoom="30.012985"
   inkscape:cx="13.4775"
   inkscape:cy="13.4775"
   inkscape:window-width="1920"
   inkscape:window-height="1017"
   inkscape:window-x="-8"
   inkscape:window-y="-8"
   inkscape:window-maximized="1"
   inkscape:current-layer="Capa_1" />
<g
   id="g132"
   transform="matrix(-1,0,0,1,26.955,0)">
	<g
   id="c193_arrow">
		<path
   style="fill:#030104"
   d="M 24.81,0.615 H 2.145 C 0.959,0.615 0,1.574 0,2.759 v 21.438 c 0,1.181 0.959,2.142 2.145,2.142 H 24.81 c 1.184,0 2.145,-0.961 2.145,-2.142 V 2.759 C 26.954,1.574 25.993,0.615 24.81,0.615 Z m -2.534,14.243 -5.978,5.98 c -0.777,0.775 -1.998,0.812 -2.723,0.087 -0.729,-0.729 -0.691,-1.948 0.088,-2.722 L 16.522,15.34 H 5.936 c -1.031,0 -1.867,-0.837 -1.867,-1.862 0,-1.031 0.835,-1.867 1.867,-1.867 H 16.577 L 13.703,8.739 C 12.938,7.972 12.906,6.763 13.635,6.035 14.364,5.308 15.574,5.339 16.339,6.103 l 5.901,5.899 c 0.024,0.025 0.043,0.056 0.067,0.084 0.019,0.016 0.042,0.027 0.061,0.048 0.727,0.727 0.689,1.947 -0.092,2.724 z"
   id="path129" />
	</g>
</g>
<g
   id="g134">
</g>
<g
   id="g136">
</g>
<g
   id="g138">
</g>
<g
   id="g140">
</g>
<g
   id="g142">
</g>
<g
   id="g144">
</g>
<g
   id="g146">
</g>
<g
   id="g148">
</g>
<g
   id="g150">
</g>
<g
   id="g152">
</g>
<g
   id="g154">
</g>
<g
   id="g156">
</g>
<g
   id="g158">
</g>
<g
   id="g160">
</g>
<g
   id="g162">
</g>
</svg>
